<?xml version="1.0" encoding="UTF-8"?> <svg xmlns="http://www.w3.org/2000/svg" xmlns:xlink="http://www.w3.org/1999/xlink" version="1.1" id="Layer_2_00000057870974741911598420000012212266088443199617_" x="0px" y="0px" viewBox="0 0 3943.5 1126.3" style="enable-background:new 0 0 3943.5 1126.3;" xml:space="preserve"> <style type="text/css"> .st0{enable-background:new ;} .st1{fill:#FFFFFF;} .st2{fill:url(#SVGID_1_);} .st3{fill:url(#SVGID_00000151514391224989057420000001249850917331628430_);} .st4{fill:url(#SVGID_00000012461792915408668980000016734206553292844160_);} .st5{fill:url(#SVGID_00000067947179141502533120000014860451668587048845_);} .st6{fill:url(#SVGID_00000060748498245439633540000014808060366871638937_);} </style> <g id="Layer_1-2"> <g> <g class="st0"> <path class="st1" d="M1246.8,855.9l-64.8,195.8l-21.8,0.1L1102,885.5l-56.6,167l-21.5,0.1l-67-195.1l21.2-0.1l57.4,167.8 l57.4-168.4l19.3-0.1l58.5,168.6l56.3-169.3L1246.8,855.9z"></path> <path class="st1" d="M1423.7,1032.5l0.1,17.9l-138.2,0.8l-1.1-195.5l134-0.8l0.1,17.9l-113.4,0.7l0.4,69.5l101.1-0.6l0.1,17.6 l-101.1,0.6l0.4,72.6L1423.7,1032.5z"></path> <path class="st1" d="M1635.4,996.9c0.2,33.2-24.3,52.4-73.1,52.6l-89.9,0.5l-1.1-195.5l84.3-0.5c43.6-0.3,68.8,18,69,49.9 c0.1,22.3-11.8,37.2-29.6,44.6C1620.1,954,1635.3,970.4,1635.4,996.9z M1492,871.6l0.4,70.9l62.3-0.4 c31.3-0.2,49.4-12.3,49.2-35.7c-0.1-23.5-18.4-35.4-49.6-35.2L1492,871.6z M1614.8,995.4c-0.1-25.4-18.9-36.5-53.3-36.3l-69,0.4 l0.4,73.4l69-0.4C1596.3,1032.3,1614.9,1021.1,1614.8,995.4z"></path> <path class="st1" d="M1951.5,995.1l-108.9,0.6l-23.2,52.3l-21.5,0.1l88.2-196l20.4-0.1l90.5,194.9l-21.8,0.1L1951.5,995.1z M1943.9,978.4l-47.5-104.7L1850,978.9L1943.9,978.4z"></path> <path class="st1" d="M2181.7,917.6c0.2,41.6-29.8,66.9-79.5,67.2l-52.5,0.3l0.4,61.7l-20.7,0.1l-1.1-195.5l73.2-0.4 C2151.1,850.7,2181.4,875.7,2181.7,917.6z M2161,917.7c-0.2-31.3-20.9-49-60-48.8l-51.9,0.3l0.6,97.7l51.9-0.3 C2140.6,966.4,2161.2,948.4,2161,917.7z"></path> <path class="st1" d="M2379.4,916.4c0.2,41.6-29.8,66.9-79.5,67.2l-52.5,0.3l0.4,61.7l-20.7,0.1l-1.1-195.5l73.2-0.4 C2348.8,849.6,2379.1,874.5,2379.4,916.4z M2358.7,916.5c-0.2-31.3-20.9-49-60-48.8l-51.9,0.3l0.6,97.7l51.9-0.3 C2338.3,965.2,2358.9,947.3,2358.7,916.5z"></path> <path class="st1" d="M2423.6,849.2l20.7-0.1l1,177.6l109.5-0.6l0.1,17.9l-130.1,0.8L2423.6,849.2z"></path> <path class="st1" d="M2588.1,848.2l20.7-0.1l1.1,195.5l-20.7,0.1L2588.1,848.2z"></path> <path class="st1" d="M2655.7,945.5c-0.3-57.2,43-99.7,101.9-100c28.5-0.2,54.2,9.2,71.6,28.1l-13,13.2 c-16-16.1-35.6-23-57.9-22.8c-47.2,0.3-82.4,35.1-82.2,81.4c0.3,46.3,35.9,80.8,83.1,80.5c22.3-0.1,41.8-7.2,57.7-23.8l13.2,13 c-17.2,19.1-42.8,29-71.6,29.2C2699.8,1044.7,2656,1002.8,2655.7,945.5z"></path> <path class="st1" d="M2991.6,989.1l-108.9,0.6l-23.2,52.3l-21.5,0.1l88.2-196l20.4-0.1l90.5,194.9l-21.8,0.1L2991.6,989.1z M2983.9,972.4l-47.5-104.7L2890.1,973L2983.9,972.4z"></path> <path class="st1" d="M3096.7,863.1l-68.7,0.4l-0.1-17.9l158-0.9l0.1,17.9l-68.7,0.4l1,177.6l-20.7,0.1L3096.7,863.1z"></path> <path class="st1" d="M3218.8,844.6l20.7-0.1l1.1,195.5l-20.7,0.1L3218.8,844.6z"></path> <path class="st1" d="M3286.4,941.9c-0.3-57,43-99.7,102.2-100c58.6-0.3,102.7,41.6,103,98.8c0.3,57.2-43.3,99.7-101.9,100 C3330.6,1041.1,3286.7,998.9,3286.4,941.9z M3471,940.8c-0.3-46.6-35.4-80.8-82.3-80.5c-47.2,0.3-82.2,34.8-81.9,81.4 c0.3,46.6,35.6,80.8,82.8,80.5C3436.5,1022,3471.2,987.5,3471,940.8z"></path> <path class="st1" d="M3700.8,841.8l1.1,195.5l-17,0.1l-126.6-157.9l0.9,158.6l-20.7,0.1l-1.1-195.5l17-0.1l126.8,157.9 l-0.9-158.6L3700.8,841.8z"></path> </g> <g class="st0"> <path fill="#FFFFFF" d="M1483,713.4l-0.8-352.5l-172.9,290.4h-61.3l-172.1-282.9v345H948.3V125.9h112.5L1280.7,491l216.6-365.1h111.6l1.7,587.5 H1483z"></path> <path fill="#FFFFFF" d="M2136.8,587.5H1864l-52,125.9h-139.3l261.9-587.5h134.3l262.7,587.5h-142.7L2136.8,587.5z M2094,484.3l-93.2-224.9 l-93.2,224.9H2094z"></path> <path fill="#FFFFFF" d="M2485.1,236.7h-188V125.9h512v110.8h-188v476.8h-136V236.7z"></path> <path fill="#FFFFFF" d="M3239.7,587.5h-272.8l-52,125.9h-139.3l261.9-587.5h134.3l262.7,587.5h-142.7L3239.7,587.5z M3196.9,484.3l-93.2-224.9 l-93.2,224.9H3196.9z"></path> <path fill="#FFFFFF" d="M3588.1,236.7h-188V125.9h512v110.8h-188v476.8h-136V236.7z"></path> </g> <linearGradient id="SVGID_1_" gradientUnits="userSpaceOnUse" x1="8257.04" y1="169.245" x2="9067.7305" y2="169.245" gradientTransform="matrix(-1 0 0 -1 9067.7305 1126)"> <stop offset="0" style="stop-color:#290090"></stop> <stop offset="1" style="stop-color:#7E65BC"></stop> </linearGradient> <path class="st2" d="M0,956.8L0,956.8c0-55.1,44.7-99.8,99.8-99.8h611.1c55.1,0,99.8,44.7,99.8,99.8v0c0,55.1-44.7,99.8-99.8,99.8 H99.8C44.7,1056.6,0,1011.9,0,956.8z"></path> <linearGradient id="SVGID_00000000195364996364068500000013702723234426789783_" gradientUnits="userSpaceOnUse" x1="8518.6396" y1="418.755" x2="9004.0801" y2="418.755" gradientTransform="matrix(-1 0 0 -1 9004.0801 1126)"> <stop offset="0" style="stop-color:#2E79FF"></stop> <stop offset="1" style="stop-color:#2EB4FF"></stop> </linearGradient> <path style="fill:url(#SVGID_00000000195364996364068500000013702723234426789783_);" d="M0,707.2L0,707.2 c0-55.1,44.7-99.8,99.8-99.8h285.8c55.1,0,99.8,44.7,99.8,99.8v0c0,55.1-44.7,99.8-99.8,99.8H99.8C44.7,807,0,762.4,0,707.2z"></path> <linearGradient id="SVGID_00000034078475590887779560000017539219218316290475_" gradientUnits="userSpaceOnUse" x1="8257.0303" y1="668.255" x2="9067.7197" y2="668.255" gradientTransform="matrix(-1 0 0 -1 9067.7197 1126)"> <stop offset="0" style="stop-color:#E91E63"></stop> <stop offset="1" style="stop-color:#F275C1"></stop> </linearGradient> <path style="fill:url(#SVGID_00000034078475590887779560000017539219218316290475_);" d="M0,457.8L0,457.8 c0-55.1,44.7-99.8,99.8-99.8h611.1c55.1,0,99.8,44.7,99.8,99.8v0c0,55.1-44.7,99.8-99.8,99.8H99.8C44.7,557.6,0,512.9,0,457.8z"></path> <linearGradient id="SVGID_00000129885003007160038390000008952275739347311280_" gradientUnits="userSpaceOnUse" x1="0" y1="920.975" x2="564.06" y2="920.975" gradientTransform="matrix(1 0 0 -1 0 1126)"> <stop offset="0" style="stop-color:#FFC107"></stop> <stop offset="1" style="stop-color:#FF9172"></stop> </linearGradient> <path style="fill:url(#SVGID_00000129885003007160038390000008952275739347311280_);" d="M0,205L0,205c0-55.1,44.7-99.8,99.8-99.8 h364.5c55.1,0,99.8,44.7,99.8,99.8v0c0,55.1-44.7,99.8-99.8,99.8H99.8C44.7,304.8,0,260.1,0,205z"></path> <linearGradient id="SVGID_00000081607997416587547480000003347386791037774992_" gradientUnits="userSpaceOnUse" x1="8371.96" y1="920.97" x2="8571.5596" y2="920.97" gradientTransform="matrix(-1 0 0 -1 9182.6504 1126)"> <stop offset="0" style="stop-color:#8BC34A"></stop> <stop offset="1" style="stop-color:#BCEF7B"></stop> </linearGradient> <circle style="fill:url(#SVGID_00000081607997416587547480000003347386791037774992_);" cx="710.9" cy="205" r="99.8"></circle> </g> </g> </svg> 